
<svg xmlns="http://www.w3.org/2000/svg" version="1.1" xmlns:xlink="http://www.w3.org/1999/xlink" preserveAspectRatio="none" x="0px" y="0px" width="50px" height="50px" viewBox="0 0 50 50">
<defs>
<g id="Layer0_0_FILL">
<path fill="#990000" stroke="none" d="
M 437 75
Q 401.55 39.55 355.65 20.1 308.05 0 256 0 203.9 0 156.35 20.1 110.4 39.55 75 75 39.55 110.45 20.1 156.35 0 203.95 0 256 0 308.1 20.1 355.65 39.55 401.6 75 437.05 110.4 472.45 156.35 491.9 203.9 512 256 512 308.05 512 355.65 491.9 401.55 472.45 437 437.05 472.45 401.6 491.9 355.65 512 308.1 512 256 512 203.95 491.9 156.35 472.45 110.45 437 75
M 403.05 108.95
Q 431.85 137.7 447.65 175.05 464 213.7 464 256 464 298.3 447.65 336.95 431.85 374.3 403.05 403.1 374.3 431.85 336.95 447.65 298.3 464 256 464 213.65 464 175.05 447.65 137.7 431.85 108.9 403.1 80.15 374.3 64.35 336.95 48 298.3 48 256 48 213.7 64.35 175.05 80.15 137.7 108.9 108.95 137.7 80.15 175.05 64.35 213.7 48 256 48 298.3 48 336.95 64.35 374.3 80.15 403.05 108.95
M 343.8 191.9
Q 343.8 182 336.75 175 329.7 168.05 319.75 168.05 309.8 168 302.85 175
L 255.85 222 208.85 175
Q 201.85 168 191.9 168 181.95 168 175 175 167.95 182.05 167.95 192 167.95 201.95 175 208.9
L 222 255.9 175 302.9
Q 167.95 309.95 167.95 319.9 167.95 329.85 175 336.8 182.05 343.8 191.95 343.8 201.95 343.85 208.85 336.8
L 255.85 289.8 302.85 336.8
Q 309.9 343.85 319.85 343.85 329.8 343.85 336.75 336.8 343.75 329.75 343.75 319.8 343.8 309.85 336.75 302.9
L 289.75 255.9 336.75 208.9
Q 343.8 201.85 343.8 191.9 Z"/>
</g>
</defs>

<g transform="matrix( 0.09375, 0, 0, 0.09375, 1,1) ">
<use xlink:href="#Layer0_0_FILL"/>
</g>
</svg>
