
<svg xmlns="http://www.w3.org/2000/svg" version="1.1" xmlns:xlink="http://www.w3.org/1999/xlink" preserveAspectRatio="none" x="0px" y="0px" width="200px" height="200px" viewBox="0 0 200 200">
<defs>
<g id="Layer1_0_FILL">
<path fill="#999999" stroke="none" d="
M 169.3 169.35
Q 198 140.65 198 100 198 59.4 169.3 30.7 140.6 2 100 2 59.4 2 30.7 30.7 2 59.4 2 100 2 140.65 30.7 169.35 59.4 198 100 198 140.6 198 169.3 169.35
M 193 100
Q 193 138.55 165.7 165.8 138.5 193 100 193 61.45 193 34.2 165.8 7 138.55 7 100 7 61.45 34.2 34.2 61.45 7 100 7 138.5 7 165.7 34.2 193 61.45 193 100 Z"/>
</g>

<g id="Layer1_1_FILL">
<path fill="#999999" stroke="none" d="
M 368 216
Q 368 206.05 360.95 199 353.95 192 344 192 334.05 192 327 199 320 206.05 320 216
L 320 256
Q 320 282.05 309.95 305.85 300.25 328.8 282.5 346.55 264.8 364.25 241.85 373.95 218.05 384 192 384 165.95 384 142.15 373.95 119.2 364.25 101.45 346.55 83.75 328.8 74.05 305.85 64 282.05 64 256
L 64 216
Q 64 206.05 56.95 199 49.95 192 40 192 30.05 192 23 199 16 206.05 16 216
L 16 256
Q 16 288.85 27.7 319.2 38.95 348.55 59.8 372.25 80.55 395.85 108.05 410.75 136.2 426.1 168 430.4
L 168 464 120 464
Q 110 464 103 471.05 96 478.05 96 488 96 498 103 505 110 512 120 512
L 264 512
Q 273.95 512 280.95 505 288 497.95 288 488 288 478.05 280.95 471.05 273.95 464 264 464
L 216 464 216 430.4
Q 247.75 426.05 275.95 410.75 303.4 395.8 324.15 372.25 345 348.5 356.3 319.2 368 288.85 368 256
L 368 216
M 280.45 58.65
Q 273.15 41.4 259.9 28.15 246.6 14.85 229.35 7.55 211.5 0 192 0 172.5 0 154.65 7.55 137.4 14.85 124.15 28.15 110.85 41.4 103.55 58.65 96 76.5 96 96
L 96 256
Q 96 275.5 103.55 293.35 110.85 310.6 124.15 323.9 137.4 337.15 154.65 344.45 172.5 352 192 352 211.5 352 229.35 344.45 246.6 337.15 259.9 323.9 273.15 310.6 280.45 293.35 288 275.5 288 256
L 288 96
Q 288 76.5 280.45 58.65 Z"/>
</g>
</defs>

<g transform="matrix( 1, 0, 0, 1, 0,0) ">
<use xlink:href="#Layer1_0_FILL"/>
</g>

<g transform="matrix( 0.284088134765625, 0, 0, 0.2840728759765625, 45.45,27.3) ">
<use xlink:href="#Layer1_1_FILL"/>
</g>
</svg>
