
<svg xmlns="http://www.w3.org/2000/svg" version="1.1" xmlns:xlink="http://www.w3.org/1999/xlink" preserveAspectRatio="none" x="0px" y="0px" width="100px" height="100px" viewBox="0 0 100 100">
<defs>
<g id="Layer0_0_MEMBER_0_FILL">
<path fill="#CCCCCC" stroke="none" d="
M 8.45 94.3
Q 5.55 91.4 1.4 91.4 -2.75 91.4 -5.7 94.3 -8.6 97.25 -8.6 101.4 -8.6 105.55 -5.7 108.45 -2.75 111.4 1.4 111.4 5.55 111.4 8.45 108.45 11.4 105.55 11.4 101.4 11.4 97.25 8.45 94.3 Z"/>
</g>

<g id="Layer0_0_MEMBER_1_FILL">
<path fill="#CCCCCC" stroke="none" d="
M 8.45 94.3
Q 5.55 91.4 1.4 91.4 -2.75 91.4 -5.7 94.3 -8.6 97.25 -8.6 101.4
L -8.6 121.4
Q -8.6 125.55 -5.7 128.45 -2.75 131.4 1.4 131.4 5.55 131.4 8.45 128.45 11.4 125.55 11.4 121.4
L 11.4 101.4
Q 11.4 97.25 8.45 94.3 Z"/>
</g>

<g id="Layer0_0_MEMBER_2_FILL">
<path fill="#CCCCCC" stroke="none" d="
M 8.45 94.3
Q 5.55 91.4 1.4 91.4 -2.75 91.4 -5.7 94.3 -8.6 97.25 -8.6 101.4 -8.6 105.55 -5.7 108.45 -2.75 111.4 1.4 111.4 5.55 111.4 8.45 108.45 11.4 105.55 11.4 101.4 11.4 97.25 8.45 94.3 Z"/>
</g>

<g id="Layer0_0_MEMBER_3_FILL">
<path fill="#CCCCCC" stroke="none" d="
M 8.45 94.3
Q 5.55 91.4 1.4 91.4 -2.75 91.4 -5.7 94.3 -8.6 97.25 -8.6 101.4
L -8.6 181.4
Q -8.6 185.55 -5.7 188.45 -2.75 191.4 1.4 191.4 5.55 191.4 8.45 188.45 11.4 185.55 11.4 181.4
L 11.4 101.4
Q 11.4 97.25 8.45 94.3 Z"/>
</g>

<g id="Layer0_0_MEMBER_4_FILL">
<path fill="#CCCCCC" stroke="none" d="
M 8.45 94.3
Q 5.55 91.4 1.4 91.4 -2.75 91.4 -5.7 94.3 -8.6 97.25 -8.6 101.4
L -8.6 241.4
Q -8.6 245.55 -5.7 248.45 -2.75 251.4 1.4 251.4 5.55 251.4 8.45 248.45 11.4 245.55 11.4 241.4
L 11.4 101.4
Q 11.4 97.25 8.45 94.3 Z"/>
</g>

<g id="Layer0_0_MEMBER_5_FILL">
<path fill="#CCCCCC" stroke="none" d="
M 8.45 94.3
Q 5.55 91.4 1.4 91.4 -2.75 91.4 -5.7 94.3 -8.6 97.25 -8.6 101.4
L -8.6 161.4
Q -8.6 165.55 -5.7 168.45 -2.75 171.4 1.4 171.4 5.55 171.4 8.45 168.45 11.4 165.55 11.4 161.4
L 11.4 101.4
Q 11.4 97.25 8.45 94.3 Z"/>
</g>

<g id="Layer0_0_MEMBER_6_FILL">
<path fill="#CCCCCC" stroke="none" d="
M 8.45 94.3
Q 5.55 91.4 1.4 91.4 -2.75 91.4 -5.7 94.3 -8.6 97.25 -8.6 101.4
L -8.6 201.4
Q -8.6 205.55 -5.7 208.45 -2.75 211.4 1.4 211.4 5.55 211.4 8.45 208.45 11.4 205.55 11.4 201.4
L 11.4 101.4
Q 11.4 97.25 8.45 94.3 Z"/>
</g>
</defs>

<g transform="matrix( 0.456207275390625, 0, 0, 0.4503326416015625, 8.95,4.4) ">
<use xlink:href="#Layer0_0_MEMBER_0_FILL"/>
</g>

<g transform="matrix( 0.456207275390625, 0, 0, 0.4503326416015625, 22.65,-0.1) ">
<use xlink:href="#Layer0_0_MEMBER_1_FILL"/>
</g>

<g transform="matrix( 0.456207275390625, 0, 0, 0.4503326416015625, 89.8,4.3) ">
<use xlink:href="#Layer0_0_MEMBER_2_FILL"/>
</g>

<g transform="matrix( 0.456207275390625, 0, 0, 0.4503326416015625, 35.4,-13.75) ">
<use xlink:href="#Layer0_0_MEMBER_3_FILL"/>
</g>

<g transform="matrix( 0.456207275390625, 0, 0, 0.4503326416015625, 48.8,-27.15) ">
<use xlink:href="#Layer0_0_MEMBER_4_FILL"/>
</g>

<g transform="matrix( 0.456207275390625, 0, 0, 0.4503326416015625, 62.6,-9.2) ">
<use xlink:href="#Layer0_0_MEMBER_5_FILL"/>
</g>

<g transform="matrix( 0.456207275390625, 0, 0, 0.4503326416015625, 76.25,-18.1) ">
<use xlink:href="#Layer0_0_MEMBER_6_FILL"/>
</g>
</svg>
